<svg width="40" height="40" viewBox="0 0 40 40" fill="none" xmlns="http://www.w3.org/2000/svg">
<path d="M39.6477 9.15908L27.5165 21.2121L39.6477 33.2652C39.867 32.8068 40 32.3001 40 31.759V10.6653C40 10.1241 39.867 9.61744 39.6477 9.15908ZM36.4844 7.14963H3.51562C2.97445 7.14963 2.46781 7.28267 2.00945 7.50197L17.5144 22.9288C18.8853 24.2997 21.1147 24.2997 22.4856 22.9288L37.9905 7.50197C37.5322 7.28267 37.0255 7.14963 36.4844 7.14963ZM0.352344 9.15908C0.133047 9.61744 0 10.1241 0 10.6653V31.759C0 32.3002 0.133047 32.8069 0.352344 33.2652L12.4835 21.2121L0.352344 9.15908Z" fill="#FFB803"/>
<path d="M25.8594 22.8692L24.1427 24.5859C21.8584 26.8702 18.1415 26.8702 15.8572 24.5859L14.1406 22.8692L2.00945 34.9223C2.46781 35.1416 2.97445 35.2746 3.51562 35.2746H36.4844C37.0255 35.2746 37.5322 35.1416 37.9905 34.9223L25.8594 22.8692Z" fill="#FFB803"/>
</svg>
