<svg width="30" height="30" viewBox="0 0 30 30" fill="none" xmlns="http://www.w3.org/2000/svg">
<g clip-path="url(#clip0_30_24)">
<path d="M27.2165 0H2.78352C1.24623 0 0 1.24623 0 2.78352V27.2165C0 28.7538 1.24623 30 2.78352 30H27.2165C28.7538 30 30 28.7538 30 27.2165V2.78352C30 1.24623 28.7538 0 27.2165 0Z" fill="url(#paint0_linear_30_24)"/>
<path d="M10.8068 8.18182C10.8068 8.68751 10.6569 9.18184 10.3759 9.60231C10.095 10.0228 9.69565 10.3505 9.22845 10.544C8.76125 10.7375 8.24716 10.7882 7.75119 10.6895C7.25521 10.5909 6.79963 10.3473 6.44205 9.98976C6.08448 9.63218 5.84096 9.1766 5.74231 8.68063C5.64365 8.18465 5.69428 7.67056 5.8878 7.20337C6.08132 6.73617 6.40904 6.33685 6.8295 6.0559C7.24997 5.77495 7.74431 5.625 8.25 5.625C8.92811 5.625 9.57844 5.89438 10.0579 6.37387C10.5374 6.85337 10.8068 7.50371 10.8068 8.18182ZM10.2273 12.4432V23.7392C10.2277 23.8225 10.2117 23.9051 10.1801 23.9823C10.1485 24.0594 10.102 24.1295 10.0433 24.1886C9.98449 24.2477 9.91462 24.2945 9.83768 24.3265C9.76073 24.3585 9.67822 24.375 9.59488 24.375H6.9C6.81666 24.3752 6.73411 24.359 6.65707 24.3272C6.58004 24.2954 6.51005 24.2487 6.45112 24.1898C6.3922 24.1309 6.3455 24.0609 6.31371 23.9838C6.28193 23.9068 6.26568 23.8242 6.2659 23.7409V12.4432C6.2659 12.275 6.33271 12.1137 6.45163 11.9948C6.57054 11.8759 6.73182 11.8091 6.9 11.8091H9.59488C9.76276 11.8095 9.9236 11.8765 10.0422 11.9954C10.1607 12.1143 10.2273 12.2753 10.2273 12.4432ZM24.3136 18.3239V23.792C24.3139 23.8687 24.2989 23.9446 24.2697 24.0154C24.2405 24.0862 24.1976 24.1506 24.1434 24.2048C24.0892 24.2589 24.0249 24.3019 23.954 24.3311C23.8832 24.3603 23.8073 24.3752 23.7307 24.375H20.833C20.7563 24.3752 20.6804 24.3603 20.6096 24.3311C20.5388 24.3019 20.4744 24.2589 20.4202 24.2048C20.3661 24.1506 20.3231 24.0862 20.2939 24.0154C20.2647 23.9446 20.2498 23.8687 20.25 23.792V18.4926C20.25 17.7017 20.4818 15.029 18.1824 15.029C16.4011 15.029 16.0381 16.858 15.9665 17.6795V23.792C15.9665 23.9452 15.9062 24.0922 15.7988 24.2013C15.6913 24.3104 15.5452 24.3728 15.392 24.375H12.5932C12.5167 24.375 12.441 24.3599 12.3703 24.3306C12.2997 24.3013 12.2356 24.2583 12.1816 24.2042C12.1276 24.15 12.0848 24.0857 12.0557 24.015C12.0266 23.9443 12.0117 23.8685 12.0119 23.792V12.3938C12.0117 12.3173 12.0266 12.2415 12.0557 12.1708C12.0848 12.1001 12.1276 12.0358 12.1816 11.9816C12.2356 11.9275 12.2997 11.8845 12.3703 11.8552C12.441 11.8259 12.5167 11.8108 12.5932 11.8108H15.392C15.5467 11.8108 15.6949 11.8722 15.8043 11.9815C15.9136 12.0909 15.975 12.2391 15.975 12.3938V13.379C16.6364 12.3869 17.6165 11.6216 19.708 11.6216C24.3409 11.6216 24.3136 15.9477 24.3136 18.3239Z" fill="white"/>
</g>
<defs>
<linearGradient id="paint0_linear_30_24" x1="15" y1="0.680114" x2="15" y2="28.2034" gradientUnits="userSpaceOnUse">
<stop stop-color="#0D87FF"/>
<stop offset="1" stop-color="#0B63BD"/>
</linearGradient>
<clipPath id="clip0_30_24">
<rect width="30" height="30" fill="white"/>
</clipPath>
</defs>
</svg>
